<svg xmlns="http://www.w3.org/2000/svg" data-name="Layer 1" viewBox="0 0 64 64"><path fill="#fff" d="M4.83,39.32c.56,1.82,1.86,6.74,1.31,8.31a2.48,2.48,0,0,0,.11,2.13,2.67,2.67,0,0,0,1.86,1.17h15.5a.61.61,0,0,0,.61-.54c.24-2.28-3-3.24-3.72-3.41-2.19-1.61-1.26-4.87-.37-7.19,0-.07,0-.12.06-.17a23.61,23.61,0,0,0,5-1.1,16.84,16.84,0,0,1-.35,3.5c-1.16,6.37,3.57,8.83,3.62,8.85a.67.67,0,0,0,.28.06h8.33a.61.61,0,0,0,.61-.61c0-1.77-2.65-2.65-3.73-2.93a7.91,7.91,0,0,1,0-3.76,5.05,5.05,0,0,1,1.87-2.93c-.18,5.93,5.07,9.93,5.31,10.11a.61.61,0,0,0,.37.12h8a.61.61,0,0,0,.46-.2.63.63,0,0,0,.15-.48c-.3-2.9-3.6-3.82-4.42-4a3.82,3.82,0,0,1-1-2.92,8,8,0,0,1,2-5.08,9.14,9.14,0,0,0,2.16-4.47c8.79,1.32,11.23-.61,12.25-1.43a3.81,3.81,0,0,0,.59-3.92,40,40,0,0,1-4.2-5.69c-.19-.38-.38-.79-.58-1.2s-.48-1-.73-1.49a6.56,6.56,0,0,0,1-3.87.62.62,0,0,0-.47-.57c-.94-.22-1.93.7-2.53,1.39a7.92,7.92,0,0,0-.63-.56,6.45,6.45,0,0,0-1.22-2.81.61.61,0,0,0-.68-.19,3.17,3.17,0,0,0-2.11,2.23H48.42c-7.7-2.52-9.68-1.84-11.78-1.12-1.69.57-3.44,1.17-9.16-.26C13,10.65,6.26,16,3.53,19.53c-2,2.55-2,10.76-.17,16.57A16.7,16.7,0,0,0,4.83,39.32ZM7.3,49.14A1.32,1.32,0,0,1,7.3,48c.43-1.23,0-3.64-.4-5.68A36.56,36.56,0,0,0,10,45.79a2.21,2.21,0,0,1,.72,1.79,3.06,3.06,0,0,0,.54,2.13h-3A1.54,1.54,0,0,1,7.3,49.14ZM45.76,37.45a9.06,9.06,0,0,0-2.34,5.86,4.88,4.88,0,0,0,1.58,4,.6.6,0,0,0,.28.13s2.7.51,3.43,2.3h-7c-.88-.73-5.22-4.6-4.6-9.77a7.84,7.84,0,0,0,3.6-3A5.91,5.91,0,0,1,46.05,34a6.2,6.2,0,0,0,1.52-.11A8.17,8.17,0,0,1,45.76,37.45ZM55.9,17a5.58,5.58,0,0,1-.39,1.78c-.19-.31-.37-.6-.56-.86A5.76,5.76,0,0,1,55.9,17ZM4.5,20.28C7.05,17,13.38,12,27.18,15.46c6.08,1.52,8,.86,9.86.22s3.7-1.26,11.08,1.16l.18,0,1,0a5,5,0,0,0,.23,1.53A.61.61,0,1,0,50.72,18s-.74-2.3.88-3.25a3.53,3.53,0,0,1,.29,3.7.62.62,0,0,0,.19.85.64.64,0,0,0,.33.1.6.6,0,0,0,.51-.28,3.78,3.78,0,0,0,.5-1.14l.28.31a12.38,12.38,0,0,1,1.21,1.9c.32.6.61,1.22.89,1.83l.59,1.23a41.28,41.28,0,0,0,4.33,5.9,3.2,3.2,0,0,1-.38,2.2l-.1.08c-.75.6-3,2.43-11.83,1h-.14l-.13,0-.07,0h0a4.82,4.82,0,0,1-2,.29,7.1,7.1,0,0,0-6.42,3.48,6.72,6.72,0,0,1-3.19,2.62,2.53,2.53,0,0,0-.23.12l-.06,0a6.32,6.32,0,0,0-3.43,4.34,8.29,8.29,0,0,0,.14,4.75.6.6,0,0,0,.43.36,7.2,7.2,0,0,1,2.73,1.21H28.89c-.65-.39-3.76-2.52-2.86-7.47.64-3.48.33-4.77.09-5.72a2.8,2.8,0,0,1,.11-2,.62.62,0,0,0-.37-.78.61.61,0,0,0-.78.37,3.93,3.93,0,0,0-.15,2.71c0,.14.07.3.11.46a23.6,23.6,0,0,1-5.19,1.14.45.45,0,0,0-.11,0,.76.76,0,0,0-.27.06c-2.44.18-5.14-.14-7.08-1.82a.62.62,0,0,0-.87.07.61.61,0,0,0,.07.86,10.07,10.07,0,0,0,6.74,2.18l.52,0c-.7,1.86-2.09,6.18,1,8.34a.67.67,0,0,0,.21.09c.66.15,2.32.71,2.78,1.57H13.11a1.88,1.88,0,0,1-1.17-2,3.43,3.43,0,0,0-1.09-2.78C9,43.15,5.78,39.6,4.52,35.73,2.62,29.85,2.92,22.33,4.5,20.28Z"/></svg>