<svg xmlns="http://www.w3.org/2000/svg" data-name="Layer 1" viewBox="0 0 512 512"><path fill="#fff" d="M124.63574,152.279a7.49585,7.49585,0,0,0,0-6.70019,46.1918,46.1918,0,0,0-82.88379,0,7.49585,7.49585,0,0,0,0,6.70019,46.1918,46.1918,0,0,0,82.88379,0Zm-67.53613-3.35009a31.14784,31.14784,0,0,1,52.18848,0,31.14785,31.14785,0,0,1-52.18848,0ZM206.249,119.78926a46.14792,46.14792,0,0,0-41.44336,25.78906,7.49793,7.49793,0,0,0,0,6.70117,46.19278,46.19278,0,0,0,82.88477-.00049,7.49585,7.49585,0,0,0,0-6.70019A46.14244,46.14244,0,0,0,206.249,119.78926Zm0,43.27929a31.12435,31.12435,0,0,1-26.09472-14.13964,31.14783,31.14783,0,0,1,52.18847,0A31.12385,31.12385,0,0,1,206.249,163.06855Zm8.81446,67.24512a7.50271,7.50271,0,0,0-7.69922-.32471,131.81882,131.81882,0,0,1-62.64453,15.93311h-.23731A131.862,131.862,0,0,1,82.07812,229.989a7.50009,7.50009,0,0,0-11.04785,7.26368,75.37563,75.37563,0,0,0,23.542,48.272,73.2387,73.2387,0,0,0,49.24707,20.01953c.29882.00342.59179.00537.89062.00537,37.94629,0,70.23535-29.834,73.70215-68.2959A7.50125,7.50125,0,0,0,215.06348,230.31367Zm-71.06055,60.23145c-25.06738-.30762-47.07715-17.31788-55.07227-40.7168a146.36772,146.36772,0,0,0,55.52442,11.09375h.26465a146.34671,146.34671,0,0,0,55.82226-11.106C192.43555,273.80146,169.83984,290.86445,144.00293,290.54512ZM503.32715,123.94258a17.30331,17.30331,0,0,0-17.38672-.14551,242.62228,242.62228,0,0,1-120.38477,31.32129,239.39752,239.39752,0,0,1-76.11328-13.02173V35.4626a17.49373,17.49373,0,0,0-26.06054-15.26172A242.86253,242.86253,0,0,1,144.71191,51.528c-.56836,0-1.14355-.002-1.71386-.00635A242.91193,242.91193,0,0,1,26.09277,20.22285,17.49694,17.49694,0,0,0,0,35.465V226.1916C0,283.903,27.30371,338.9709,73.03711,373.49824a118.76524,118.76524,0,0,0,143.36816,0c3.3208-2.50708,6.53223-5.13452,9.65479-7.85132a184.9598,184.9598,0,0,0,69.53467,111.448,118.76524,118.76524,0,0,0,143.36816,0C484.69629,442.56758,512,387.49971,512,329.78828v-190.729A17.34521,17.34521,0,0,0,503.32715,123.94258ZM288.60107,243.58711a30.80529,30.80529,0,0,1,17.15088-5.20117,31.12691,31.12691,0,0,1,26.09473,14.13964A31.09028,31.09028,0,0,1,286.32129,259.82Q287.81543,251.77986,288.60107,243.58711ZM207.36816,361.52656a103.76688,103.76688,0,0,1-125.29394,0C40.07422,329.81807,15,279.22529,15,226.1916V35.465a2.41527,2.41527,0,0,1,1.2334-2.15576,2.53417,2.53417,0,0,1,1.26758-.355,2.48168,2.48168,0,0,1,1.23242.33935,257.95968,257.95968,0,0,0,124.15722,33.228c.60938.00439,1.21485.00635,1.82227.00635A257.91614,257.91614,0,0,0,270.73926,33.27217a2.39353,2.39353,0,0,1,2.459.02343,2.43139,2.43139,0,0,1,1.24414,2.167v190.729C274.44238,279.22529,249.36816,329.81807,207.36816,361.52656ZM497,329.78828c0,53.03369-25.07422,103.62646-67.07422,135.335a103.76688,103.76688,0,0,1-125.29394,0,169.95,169.95,0,0,1-65.47608-112.07495,185.84342,185.84342,0,0,0,43.54688-77.56958,46.14419,46.14419,0,0,0,64.4917-19.60254,7.49793,7.49793,0,0,0,0-6.70117,46.177,46.177,0,0,0-57.7544-22.80823c0-.05847.00244-.1167.00244-.17517V157.89741a254.12906,254.12906,0,0,0,76.00586,12.22095c.60938.00439,1.21485.00635,1.82227.00635a257.91459,257.91459,0,0,0,126.02734-33.25635,2.40016,2.40016,0,0,1,2.458.02344A2.43229,2.43229,0,0,1,497,139.05928ZM428.80664,223.38594a46.14279,46.14279,0,0,0-41.44238,25.78955,7.49585,7.49585,0,0,0,0,6.70019,46.1918,46.1918,0,0,0,82.88379,0,7.49585,7.49585,0,0,0,0-6.70019A46.14244,46.14244,0,0,0,428.80664,223.38594Zm0,43.27929a31.12554,31.12554,0,0,1-26.09473-14.13965,31.14785,31.14785,0,0,1,52.18848,0A31.12383,31.12383,0,0,1,428.80664,266.66523Zm-61.53906,66.01172q-.44532,0-.89063.00537a73.23871,73.23871,0,0,0-49.24707,20.01953,75.37567,75.37567,0,0,0-23.542,48.272,7.49977,7.49977,0,0,0,11.04785,7.26367A131.85406,131.85406,0,0,1,367.04,392.30439h.2373a131.83118,131.83118,0,0,1,62.64454,15.93311,7.49969,7.49969,0,0,0,11.04785-7.26465C437.50391,362.50849,405.21777,332.67695,367.26758,332.67695Zm.00976,44.62744h-.26464a146.36772,146.36772,0,0,0-55.52442,11.09375c7.99512-23.39892,30.00488-40.40918,55.07227-40.71679,25.81054-.35205,48.43261,16.74267,56.53906,40.72851A146.33421,146.33421,0,0,0,367.27734,377.30439Z"/></svg>